<svg width="26" height="26" viewBox="0 0 26 26" fill="none" xmlns="http://www.w3.org/2000/svg">
<path d="M17.3333 2.1665H8.66663C4.33329 2.1665 2.16663 4.33317 2.16663 8.6665V22.7498C2.16663 23.3457 2.65413 23.8332 3.24996 23.8332H17.3333C21.6666 23.8332 23.8333 21.6665 23.8333 17.3332V8.6665C23.8333 4.33317 21.6666 2.1665 17.3333 2.1665Z" fill="white"/>
<path d="M18.4167 9.479H7.58337C7.13921 9.479 6.77087 9.84734 6.77087 10.2915C6.77087 10.7357 7.13921 11.104 7.58337 11.104H18.4167C18.8609 11.104 19.2292 10.7357 19.2292 10.2915C19.2292 9.84734 18.8609 9.479 18.4167 9.479Z" fill="#3B4057"/>
<path d="M15.1667 14.896H7.58337C7.13921 14.896 6.77087 15.2643 6.77087 15.7085C6.77087 16.1527 7.13921 16.521 7.58337 16.521H15.1667C15.6109 16.521 15.9792 16.1527 15.9792 15.7085C15.9792 15.2643 15.6109 14.896 15.1667 14.896Z" fill="#3B4057"/>
</svg>
