<svg width="22" height="22" viewBox="0 0 22 22" fill="none" xmlns="http://www.w3.org/2000/svg">
  <path
    d="M18.7 3.19007C17.692 2.17452 16.4922 1.36953 15.1704 0.821881C13.8484 0.274232 12.4308 -0.00511291 11 7.08432e-05C9.08724 0.00194084 7.20841 0.506346 5.55185 1.46277C3.89529 2.41919 2.51911 3.79407 1.56109 5.44969C0.603075 7.10533 0.0968825 8.98365 0.09317 10.8964C0.0894712 12.8093 0.588404 14.6895 1.54 16.3488L0 22.0001L5.775 20.4876C7.36966 21.3747 9.16149 21.8476 10.9862 21.8626C13.8871 21.8627 16.6705 20.7169 18.7305 18.6748C20.7907 16.6328 21.9608 13.8595 21.9862 10.9588C21.9766 9.51137 21.6813 8.08005 21.1174 6.74693C20.5535 5.4138 19.7319 4.2051 18.7 3.19007ZM11 19.9788C9.37434 19.9799 7.77839 19.543 6.38 18.7138L6.05 18.5076L2.62625 19.4151L3.53375 16.0738L3.31375 15.7301C2.14397 13.8418 1.70739 11.59 2.08673 9.40123C2.46606 7.21258 3.63496 5.23904 5.37199 3.85451C7.10903 2.46997 9.29349 1.7706 11.5116 1.88889C13.7298 2.00717 15.8276 2.9349 17.4075 4.49632C19.1345 6.18508 20.1231 8.48865 20.1575 10.9038C20.1358 13.3182 19.1613 15.6263 17.4463 17.3259C15.7314 19.0254 13.4145 19.979 11 19.9788ZM15.9637 13.1863C15.6887 13.0488 14.355 12.3888 14.1075 12.3063C13.86 12.2238 13.6675 12.1688 13.4888 12.4438C13.2198 12.8125 12.9305 13.1658 12.6225 13.5026C12.4713 13.6951 12.3062 13.7088 12.0312 13.5026C10.4633 12.883 9.15709 11.7418 8.3325 10.2713C8.04375 9.79008 8.6075 9.81758 9.13 8.78633C9.16864 8.71195 9.18871 8.62945 9.18871 8.54571C9.18871 8.46197 9.16864 8.37947 9.13 8.30508C9.13 8.16757 8.51125 6.82007 8.29125 6.28382C8.07125 5.74757 7.85125 5.83007 7.6725 5.81632H7.13625C6.99731 5.81845 6.86042 5.85023 6.73475 5.9095C6.60907 5.96878 6.49751 6.05421 6.4075 6.16007C6.09898 6.46007 5.85834 6.82271 5.7018 7.22355C5.54525 7.62439 5.47645 8.05413 5.5 8.48383C5.58621 9.51247 5.97359 10.4928 6.61375 11.3026C7.78553 13.0568 9.39139 14.4779 11.275 15.4276C12.2629 16.0043 13.4111 16.2454 14.5475 16.1151C14.9259 16.04 15.2844 15.8861 15.5994 15.6634C15.9145 15.4408 16.1792 15.1542 16.3762 14.8226C16.5588 14.4178 16.6163 13.9677 16.5413 13.5301C16.4175 13.3926 16.2388 13.3238 15.9637 13.1863Z"
    fill="white" />
</svg>